<svg xmlns="http://www.w3.org/2000/svg" xmlns:xlink="http://www.w3.org/1999/xlink" width="349.617" height="46" viewBox="0 0 349.617 46">
  <defs>
    <clipPath id="clip-path">
      <rect id="Rectangle_4" data-name="Rectangle 4" width="349.617" height="46" fill="#fff"/>
    </clipPath>
  </defs>
  <g id="Logo" transform="translate(0 0)">
    <g id="Group_5" data-name="Group 5" transform="translate(0 0)" clip-path="url(#clip-path)">
      <path id="Path_3" data-name="Path 3" d="M36.087,1.2A3.63,3.63,0,0,0,33.576.271H18.782A21.625,21.625,0,0,0,9.035,2.392,15.883,15.883,0,0,0,0,17.058V28.633a16.129,16.129,0,0,0,2.347,8.682A15.609,15.609,0,0,0,8.976,43.2a21.988,21.988,0,0,0,9.806,2.092H33.576a3.67,3.67,0,0,0,2.541-.9,2.966,2.966,0,0,0,1-2.318V30.6H30.172v8.712H19.428q-5.983,0-9.259-2.768a9.589,9.589,0,0,1-3.285-7.782V17q0-5.149,3.285-7.949,3.269-2.8,9.259-2.8H30.172V28.527h6.943V3.487A2.987,2.987,0,0,0,36.087,1.2" transform="translate(0 0.16)" fill="#fff"/>
      <path id="Path_4" data-name="Path 4" d="M69.235,6.785a12.771,12.771,0,0,0-5.24-5.016A16.423,16.423,0,0,0,56.241,0H37.782a3.671,3.671,0,0,0-2.541.9,2.992,2.992,0,0,0-1,2.316V22.644H11.149a6.047,6.047,0,0,0,6.043,6.043H34.243V45.6A8.217,8.217,0,0,0,39.4,44.192a4.885,4.885,0,0,0,1.8-4.057V28.687H56.241a16.507,16.507,0,0,0,7.812-1.771,12.349,12.349,0,0,0,5.211-5.045A15.31,15.31,0,0,0,71.1,14.285a14.821,14.821,0,0,0-1.868-7.5M62.1,20.424a7.744,7.744,0,0,1-5.857,2.219H41.2V6.043H56.241A7.765,7.765,0,0,1,62.07,8.262a8.331,8.331,0,0,1,2.149,6.022,8.522,8.522,0,0,1-2.121,6.14" transform="translate(6.576 0)" fill="#fff"/>
      <text id="Dear_Partner_" data-name="Dear Partner " transform="translate(90.712 35.871)" fill="#fff" font-size="40" font-family="Como-SemiBold, Como" font-weight="600"><tspan x="0" y="0">Dear </tspan><tspan y="0" letter-spacing="-0.015em">P</tspan><tspan y="0">artner </tspan></text>
    </g>
  </g>
</svg>
